<svg width="24" height="25" viewBox="0 0 24 25" fill="none" xmlns="http://www.w3.org/2000/svg">
<g clip-path="url(#clip0_25_2376)">
<path d="M10.9243 23.3747C10.3598 23.3747 9.87158 22.9475 9.78004 22.3829C9.68849 21.9252 9.36809 21.5438 8.92562 21.3912C8.5747 21.2691 8.22378 21.1166 7.88811 20.9487C7.49142 20.7351 7.00318 20.7656 6.62174 21.025C6.16402 21.3607 5.55372 21.2997 5.15702 20.903L3.63128 19.3314C3.21933 18.9042 3.15829 18.2482 3.50922 17.7599C3.76859 17.3632 3.81437 16.8597 3.60076 16.4325C3.46344 16.1426 3.35664 15.8375 3.24984 15.5171C3.11252 15.0288 2.71583 14.6627 2.21233 14.5711C1.61729 14.4796 1.19008 13.9608 1.17482 13.3353V11.367C1.17482 10.6652 1.66306 10.0549 2.34965 9.9481C2.8684 9.84129 3.29561 9.49037 3.49396 8.98688C3.55499 8.84956 3.61602 8.71224 3.67705 8.57492C3.93643 8.05617 3.90591 7.43061 3.5855 6.95763C3.18881 6.39311 3.24984 5.59972 3.73808 5.11148L4.86713 3.95191C5.4164 3.38738 6.30133 3.3111 6.94215 3.78408L6.97266 3.81459C7.44564 4.15026 8.05594 4.19603 8.58995 3.96717C9.15448 3.75356 9.56643 3.26532 9.68849 2.65503V2.594C9.82581 1.78535 10.5124 1.20557 11.2905 1.20557H12.6484C13.4571 1.20557 14.1589 1.81587 14.2962 2.62451L14.3268 2.73131C14.4336 3.3111 14.8303 3.78408 15.3643 3.99768C15.883 4.22655 16.4781 4.16552 16.951 3.84511L17.0273 3.78408C17.6834 3.29584 18.5836 3.37213 19.1481 3.96717L20.1856 5.03519C20.7044 5.5692 20.7654 6.40836 20.3382 7.03392C20.0025 7.55267 19.9568 8.20875 20.2314 8.75801L20.2924 8.91059C20.506 9.4446 20.979 9.84129 21.5435 9.9481C22.2759 10.0702 22.8099 10.711 22.8099 11.4738V13.2437C22.8099 13.915 22.3369 14.4796 21.6961 14.6016C21.1621 14.7084 20.7349 15.1051 20.5671 15.6239C20.4908 15.8375 20.4145 16.0511 20.3229 16.2647C20.1093 16.7224 20.1551 17.2717 20.445 17.6836C20.8112 18.2176 20.7654 18.9347 20.3077 19.3925L18.8735 20.8724C18.4615 21.2997 17.8207 21.3454 17.3477 20.9945C16.951 20.7199 16.4476 20.6894 16.0203 20.9182C15.7152 21.0708 15.41 21.2081 15.0896 21.3302C14.6472 21.4827 14.3268 21.8794 14.2352 22.3524C14.1437 22.9475 13.6554 23.3899 13.0604 23.3899H10.9091L10.9243 23.3747Z" stroke="#9E9E9E" stroke-width="1.56" stroke-linecap="round" stroke-linejoin="round"/>
<path d="M15.6084 12.2822C15.6084 14.3267 13.9911 15.9745 12.0076 15.9745C10.0242 15.9745 8.40687 14.3267 8.40687 12.2822C8.40687 10.2377 10.0242 8.58984 12.0076 8.58984C13.9911 8.58984 15.6084 10.2377 15.6084 12.2822Z" stroke="#9E9E9E" stroke-width="1.56" stroke-linecap="round" stroke-linejoin="round"/>
</g>
<defs>
<clipPath id="clip0_25_2376">
<rect width="24" height="24.5493" fill="white"/>
</clipPath>
</defs>
</svg>
