<svg width="26" height="26" viewBox="0 0 26 26" fill="none" xmlns="http://www.w3.org/2000/svg">
<path d="M6.02445e-05 22.1066C6.02445e-05 24.3182 1.69195 26.0101 3.90363 26.0101H22.1067C24.3184 26.0101 26.0103 24.3182 26.0103 22.1066V11.7106H6.02445e-05V22.1066ZM22.1067 2.59892H19.5077V1.29433C19.5077 0.509542 18.9879 -0.0102539 18.2031 -0.0102539C17.4183 -0.0102539 16.8985 0.509542 16.8985 1.29433V2.59892H9.10159V1.29433C9.10159 0.509542 8.58179 -0.0102539 7.797 -0.0102539C7.01221 -0.0102539 6.49242 0.509542 6.49242 1.29433V2.59892H3.89344C1.68175 2.59892 -0.0101318 4.2908 -0.0101318 6.50249V9.10147H25.9899V6.50249C25.9899 4.2908 24.298 2.59892 22.0863 2.59892H22.1067Z" fill="#3900E5"/>
</svg>
