<svg width="26" height="26" viewBox="0 0 26 26" fill="none" xmlns="http://www.w3.org/2000/svg">
<g clip-path="url(#clip0_25_1317)">
<path d="M24.4508 15.013C23.5641 14.1161 22.392 13.5759 21.1486 13.4638C22.2187 12.4956 22.9016 11.1095 22.9016 9.55007C22.9016 6.63513 20.537 4.28076 17.6323 4.28076C14.7275 4.28076 12.577 6.43129 12.3732 9.16277C14.8498 10.2329 16.5825 12.6994 16.5825 15.5634C16.5825 16.6132 16.3481 17.6324 15.8996 18.5599C16.5417 18.8962 17.1227 19.3243 17.6323 19.8441C18.9471 21.169 19.6911 22.9934 19.6809 24.8586V24.8993V24.9299L19.6299 25.8166H25.949L26 18.8351C26.0102 17.4082 25.4496 16.0424 24.4508 15.0334V15.013Z" fill="#3900E5"/>
<path d="M13.1376 19.477C14.2077 18.5088 14.8906 17.1226 14.8906 15.5633C14.8906 12.6483 12.526 10.2939 9.62129 10.2939C6.71655 10.2939 4.35198 12.6585 4.35198 15.5633C4.35198 17.1124 5.02466 18.5088 6.09483 19.477C3.35316 19.691 1.19244 21.9639 1.17205 24.7565L1.12109 25.8063H17.9482L17.9992 24.838C18.0094 23.4112 17.4488 22.0454 16.45 21.0364C15.5633 20.1395 14.3912 19.5993 13.1477 19.4872L13.1376 19.477Z" fill="#3900E5"/>
<path d="M3.40397 6.33929V8.29617C3.40397 9.11154 4.06646 9.76383 4.87163 9.76383C5.67681 9.76383 6.33929 9.10135 6.33929 8.29617V6.33929H8.29617C9.11154 6.33929 9.76383 5.67681 9.76383 4.87163C9.76383 4.06646 9.10135 3.40397 8.29617 3.40397H6.33929V1.47767C6.33929 0.662303 5.67681 0.0100098 4.87163 0.0100098C4.06646 0.0100098 3.40397 0.672495 3.40397 1.47767V3.40397H1.47767C0.662303 3.40397 0.0100098 4.06646 0.0100098 4.87163C0.0100098 5.67681 0.672495 6.33929 1.47767 6.33929H3.40397Z" fill="#3900E5"/>
</g>
<defs>
<clipPath id="clip0_25_1317">
<rect width="26" height="25.7962" fill="white"/>
</clipPath>
</defs>
</svg>
