<svg width="28" height="29" viewBox="0 0 28 29" fill="none" xmlns="http://www.w3.org/2000/svg">
<path d="M14.2754 19.8141L19.3623 14.5334L14.2754 19.8141ZM19.3623 14.5334L14.2754 9.25262L19.3623 14.5334ZM19.3623 14.5334L9.18841 14.5334L19.3623 14.5334ZM14.2754 27.7428C7.24638 27.7428 1.55072 21.8301 1.55072 14.5334C1.55072 7.2366 7.24638 1.32397 14.2754 1.32397C21.3043 1.32397 27 7.2366 27 14.5334C27 21.8301 21.3043 27.7428 14.2754 27.7428Z" fill="#F81818"/>
<path d="M14.2754 19.8141L19.3623 14.5334M19.3623 14.5334L14.2754 9.25262M19.3623 14.5334L9.18841 14.5334M14.2754 27.7428C7.24638 27.7428 1.55072 21.8301 1.55072 14.5334C1.55072 7.2366 7.24638 1.32397 14.2754 1.32397C21.3043 1.32397 27 7.2366 27 14.5334C27 21.8301 21.3043 27.7428 14.2754 27.7428Z" stroke="white" stroke-width="1.76" stroke-linecap="round" stroke-linejoin="round"/>
</svg>
