<svg width="46" height="47" viewBox="0 0 46 47" fill="none" xmlns="http://www.w3.org/2000/svg">
<path d="M22.7931 33.1948L31.6708 24L22.7931 33.1948ZM31.6708 24L22.7931 14.8052L31.6708 24ZM31.6708 24L13.9154 24L31.6708 24ZM22.7931 47C10.5262 47 0.586205 36.705 0.586205 24C0.586205 11.295 10.5262 1 22.7931 1C35.06 1 45 11.295 45 24C45 36.705 35.06 47 22.7931 47Z" fill="#647693"/>
<path d="M22.7931 33.1948L31.6708 24M31.6708 24L22.7931 14.8052M31.6708 24L13.9154 24M22.7931 47C10.5262 47 0.586203 36.705 0.586203 24C0.586203 11.295 10.5262 1 22.7931 1C35.06 1 45 11.295 45 24C45 36.705 35.06 47 22.7931 47Z" stroke="white" stroke-linecap="round" stroke-linejoin="round"/>
</svg>
