<svg width="28" height="29" viewBox="0 0 28 29" fill="none" xmlns="http://www.w3.org/2000/svg">
<path d="M14.2754 19.8144L19.3623 14.5336L14.2754 19.8144ZM19.3623 14.5336L14.2754 9.25286L19.3623 14.5336ZM19.3623 14.5336L9.18841 14.5336L19.3623 14.5336ZM14.2754 27.743C7.24638 27.743 1.55072 21.8304 1.55072 14.5336C1.55072 7.23685 7.24638 1.32422 14.2754 1.32422C21.3043 1.32422 27 7.23685 27 14.5336C27 21.8304 21.3043 27.743 14.2754 27.743Z" fill="#3900E5"/>
<path d="M14.2754 19.8144L19.3623 14.5336M19.3623 14.5336L14.2754 9.25286M19.3623 14.5336L9.18841 14.5336M14.2754 27.743C7.24638 27.743 1.55072 21.8304 1.55072 14.5336C1.55072 7.23685 7.24638 1.32422 14.2754 1.32422C21.3043 1.32422 27 7.23685 27 14.5336C27 21.8304 21.3043 27.743 14.2754 27.743Z" stroke="white" stroke-width="1.76" stroke-linecap="round" stroke-linejoin="round"/>
</svg>
