<svg width="18" height="18" viewBox="0 0 18 18" fill="none" xmlns="http://www.w3.org/2000/svg">
<path fill-rule="evenodd" clip-rule="evenodd" d="M5.6519 0C2.53312 0 0 2.53312 0 5.6519V12.3481C0 15.4669 2.53312 18 5.6519 18H12.3481C15.4669 18 18 15.4669 18 12.3481V5.6519C18 2.53312 15.4669 0 12.3481 0H5.6519ZM12.7926 7.35241C13.0396 7.10545 13.0396 6.71031 12.7926 6.46335C12.5457 6.21639 12.1505 6.21639 11.9036 6.46335L8.02979 10.3371C7.94512 10.4218 7.81811 10.4218 7.73344 10.3371L6.08938 8.69306C5.84241 8.4461 5.44728 8.4461 5.20031 8.69306C4.95335 8.94002 4.95335 9.33516 5.20031 9.58212L6.84437 11.2262C7.41592 11.7977 8.34731 11.7977 8.91886 11.2262L12.7926 7.35241Z" fill="#3900E5"/>
</svg>
