<svg width="17" height="19" viewBox="0 0 17 19" fill="none" xmlns="http://www.w3.org/2000/svg">
<path fill-rule="evenodd" clip-rule="evenodd" d="M5.24333 0.90918C2.35001 0.90918 0 3.32716 0 6.30418V12.696C0 15.673 2.35001 18.091 5.24333 18.091H11.4555C14.3488 18.091 16.6988 15.673 16.6988 12.696V6.30418C16.6988 3.32716 14.3488 0.90918 11.4555 0.90918H5.24333ZM11.8679 7.92739C12.097 7.69165 12.097 7.31448 11.8679 7.07874C11.6388 6.843 11.2722 6.843 11.0431 7.07874L7.44933 10.7764C7.37077 10.8573 7.25295 10.8573 7.17439 10.7764L5.64918 9.2071C5.42007 8.97137 5.0535 8.97137 4.82439 9.2071C4.59528 9.44284 4.59528 9.82002 4.82439 10.0558L6.3496 11.6251C6.87982 12.1706 7.74389 12.1706 8.27412 11.6251L11.8679 7.92739Z" fill="#9B69FF"/>
</svg>
