<svg width="22" height="22" viewBox="0 0 22 22" fill="none" xmlns="http://www.w3.org/2000/svg">
<path d="M10.4265 0C16.1874 0 20.853 4.66562 20.853 10.4265C20.853 13.0568 19.8785 15.4543 18.2744 17.2913L22.0086 21.0169L21.0255 22L17.2999 18.2658C15.463 19.8699 13.0655 20.8444 10.4351 20.8444C4.66562 20.853 0 16.1788 0 10.4265C0 4.67425 4.66562 0 10.4265 0ZM10.4265 1.38848C5.43316 1.38848 1.38848 5.43316 1.38848 10.4265C1.38848 15.4198 5.43316 19.4645 10.4265 19.4645C15.4198 19.4645 19.4645 15.4198 19.4645 10.4265C19.4645 5.43316 15.4112 1.38848 10.4265 1.38848Z" fill="#9E9E9E"/>
</svg>
