<svg width="26" height="26" viewBox="0 0 26 26" fill="none" xmlns="http://www.w3.org/2000/svg">
<g clip-path="url(#clip0_732_3350)">
<path fill-rule="evenodd" clip-rule="evenodd" d="M18.5625 13H7.1875C6.73802 13 6.375 12.637 6.375 12.1875C6.375 11.738 6.73802 11.375 7.1875 11.375H18.5625C19.012 11.375 19.375 11.739 19.375 12.1875C19.375 12.636 19.012 13 18.5625 13ZM18.5625 17.0625H7.1875C6.73802 17.0625 6.375 16.6995 6.375 16.25C6.375 15.8005 6.73802 15.4375 7.1875 15.4375H18.5625C19.012 15.4375 19.375 15.8015 19.375 16.25C19.375 16.6985 19.012 17.0625 18.5625 17.0625ZM18.5625 21.125H7.1875C6.73802 21.125 6.375 20.762 6.375 20.3125C6.375 19.863 6.73802 19.5 7.1875 19.5H18.5625C19.012 19.5 19.375 19.864 19.375 20.3125C19.375 20.761 19.012 21.125 18.5625 21.125ZM8.8125 3.25H10.6185C10.6185 2.353 11.6286 1.625 12.875 1.625C14.1214 1.625 15.1315 2.353 15.1315 3.25H16.9375V6.5H8.8125V3.25ZM21 3.25H18.5625V1.625H16.3746C15.67 0.658125 14.3749 0 12.875 0C11.3751 0 10.08 0.658125 9.3754 1.625H7.1875V3.25H4.75C2.95502 3.25 1.5 4.70535 1.5 6.5V22.75C1.5 24.5446 2.95502 26 4.75 26H21C22.795 26 24.25 24.5446 24.25 22.75V6.5C24.25 4.70535 22.795 3.25 21 3.25Z" fill="#9B69FF"/>
</g>
<defs>
<clipPath id="clip0_732_3350">
<rect width="22.75" height="26" fill="white" transform="translate(1.5)"/>
</clipPath>
</defs>
</svg>
