<svg width="28" height="28" viewBox="0 0 28 28" fill="none" xmlns="http://www.w3.org/2000/svg">
<mask id="mask0_711_5261" style="mask-type:alpha" maskUnits="userSpaceOnUse" x="0" y="0" width="28" height="28">
<rect width="28" height="28" transform="matrix(-1 0 0 1 28 0)" fill="#D9D9D9"/>
</mask>
<g mask="url(#mask0_711_5261)">
<path d="M6.74048 14.5114H22.3695C22.5851 14.5114 22.7658 14.4385 22.9117 14.2928C23.0575 14.1468 23.1304 13.966 23.1304 13.7503C23.1304 13.5347 23.0575 13.354 22.9117 13.2083C22.7658 13.0627 22.5851 12.9899 22.3695 12.9899H6.74048L11.1401 8.57483C11.2782 8.43601 11.3505 8.26245 11.3569 8.05414C11.3632 7.84583 11.2909 7.66568 11.1401 7.51367C11.0018 7.37435 10.8258 7.30469 10.612 7.30469C10.3981 7.30469 10.221 7.37494 10.0807 7.51545L4.48729 13.1089C4.39227 13.2037 4.32531 13.3043 4.28642 13.4107C4.24736 13.5168 4.22783 13.6306 4.22783 13.752C4.22783 13.8734 4.24745 13.9888 4.28668 14.098C4.32607 14.2072 4.39294 14.3087 4.48729 14.4023L10.0807 19.9957C10.2195 20.1361 10.3931 20.2062 10.6014 20.2062C10.8095 20.2062 10.9891 20.1361 11.1401 19.9957C11.2973 19.8447 11.3743 19.6639 11.3711 19.4532C11.3679 19.2426 11.2909 19.0618 11.1401 18.911L6.74048 14.5114Z" fill="#414D63"/>
</g>
</svg>
