<svg width="48" height="53" viewBox="0 0 48 53" fill="none" xmlns="http://www.w3.org/2000/svg">
<path d="M45.5896 21.5432H2.39307M45.5896 27.5303V18.6708C45.5896 14.6563 45.5896 12.6317 44.8092 11.0917C44.1156 9.74203 43.0231 8.63459 41.6705 7.95974C40.1272 7.18107 38.1156 7.18107 34.0751 7.18107H13.9249C9.90174 7.18107 7.87283 7.18107 6.32948 7.95974C4.97688 8.65189 3.86705 9.74203 3.19075 11.0917C2.41041 12.6317 2.41041 14.639 2.41041 18.6708V38.7777C2.41041 42.8095 2.41041 44.8167 3.19075 46.3567C3.8844 47.7064 4.97688 48.8139 6.32948 49.4887C7.87283 50.2674 9.8844 50.2674 13.9249 50.2674H24M33.5896 2.38794V11.9742M14.3931 2.38794V11.9742" stroke="#DADADA" stroke-width="2.77" stroke-linecap="round" stroke-linejoin="round"/>
<g clip-path="url(#clip0_222_1834)">
<path d="M29.4988 51.493L46.493 34.4988M29.4988 34.4988L46.493 51.493" stroke="#DADADA" stroke-width="2.77" stroke-linecap="round" stroke-linejoin="round"/>
</g>
<defs>
<clipPath id="clip0_222_1834">
<rect width="20" height="20" fill="white" transform="translate(28 33)"/>
</clipPath>
</defs>
</svg>
