<svg version="1.1" id="Layer_1" xmlns="http://www.w3.org/2000/svg" xmlns:xlink="http://www.w3.org/1999/xlink" x="0px" y="0px"
	 width="100%" viewBox="0 0 640 640" enable-background="new 0 0 640 640" xml:space="preserve">
<path fill="#000000" opacity="1.000000" stroke="none" 
	d="
M435.382904,467.141968 
	C391.617126,467.260620 348.293549,467.304596 304.970001,467.327118 
	C273.809601,467.343323 242.649216,467.338226 211.488831,467.326355 
	C203.205658,467.323212 201.533417,465.739502 201.683090,457.341614 
	C201.955490,442.059570 200.507599,426.711304 203.650116,411.535400 
	C210.279541,379.520599 227.030823,354.213959 253.830017,335.563995 
	C258.005798,332.657959 261.714935,333.174011 263.911011,336.473907 
	C266.167725,339.864807 265.270966,342.889740 260.813385,346.077698 
	C236.363937,363.563629 221.158600,386.926300 215.783249,416.591492 
	C213.687668,428.156433 214.482666,439.826660 214.366592,451.466187 
	C214.342651,453.867401 215.632141,454.698822 217.826157,454.643860 
	C218.991562,454.614685 220.158707,454.662292 221.325058,454.662292 
	C287.811646,454.662964 354.298248,454.663910 420.784851,454.659454 
	C427.643097,454.658997 427.551575,454.642090 427.673615,447.891174 
	C427.942139,433.038666 427.672241,418.251862 423.282806,403.868744 
	C416.182739,380.603455 402.734039,361.862305 383.123230,347.513397 
	C382.316925,346.923462 381.438690,346.424286 380.672638,345.788116 
	C377.596985,343.233856 376.404419,340.021820 378.716217,336.556976 
	C381.127869,332.942474 384.561188,333.147705 387.905792,335.386230 
	C398.235260,342.299866 407.290253,350.635864 414.877625,360.468719 
	C431.815887,382.419952 440.656586,407.178009 440.349854,435.053375 
	C440.260040,443.217407 440.274323,451.383942 440.363464,459.547974 
	C440.402008,463.080811 439.273590,465.722961 435.382904,467.141968 
z"/>
<path fill="#000000" opacity="1.000000" stroke="none" 
	d="
M251.739548,218.929810 
	C267.521973,188.341415 292.413696,173.524887 326.383453,174.799713 
	C359.961731,176.059845 390.959076,204.120529 396.228760,237.297806 
	C403.320923,281.949463 374.373444,320.909973 329.519623,327.081879 
	C290.794983,332.410400 251.163605,302.297089 245.638321,263.612061 
	C243.435333,248.188004 245.117691,233.453827 251.739548,218.929810 
M332.965454,313.552094 
	C334.257294,313.234009 335.554260,312.935333 336.840210,312.595032 
	C363.922089,305.427765 383.659515,281.260162 384.652100,254.058258 
	C386.118347,213.875946 352.172638,182.992538 312.243713,188.181992 
	C268.898407,193.815460 244.285355,241.938080 264.653320,280.538269 
	C275.962036,301.969849 302.331573,318.985657 332.965454,313.552094 
z"/>
</svg>