<svg width="24" height="26" viewBox="0 0 24 26" fill="none" xmlns="http://www.w3.org/2000/svg">
<path fill-rule="evenodd" clip-rule="evenodd" d="M17.5625 13H6.1875C5.73802 13 5.375 12.637 5.375 12.1875C5.375 11.738 5.73802 11.375 6.1875 11.375H17.5625C18.012 11.375 18.375 11.739 18.375 12.1875C18.375 12.636 18.012 13 17.5625 13ZM17.5625 17.0625H6.1875C5.73802 17.0625 5.375 16.6995 5.375 16.25C5.375 15.8005 5.73802 15.4375 6.1875 15.4375H17.5625C18.012 15.4375 18.375 15.8015 18.375 16.25C18.375 16.6985 18.012 17.0625 17.5625 17.0625ZM17.5625 21.125H6.1875C5.73802 21.125 5.375 20.762 5.375 20.3125C5.375 19.863 5.73802 19.5 6.1875 19.5H17.5625C18.012 19.5 18.375 19.864 18.375 20.3125C18.375 20.761 18.012 21.125 17.5625 21.125ZM7.8125 3.25H9.61852C9.61852 2.353 10.6286 1.625 11.875 1.625C13.1214 1.625 14.1315 2.353 14.1315 3.25H15.9375V6.5H7.8125V3.25ZM20 3.25H17.5625V1.625H15.3746C14.67 0.658125 13.3749 0 11.875 0C10.3751 0 9.08 0.658125 8.3754 1.625H6.1875V3.25H3.75C1.95502 3.25 0.5 4.70535 0.5 6.5V22.75C0.5 24.5446 1.95502 26 3.75 26H20C21.795 26 23.25 24.5446 23.25 22.75V6.5C23.25 4.70535 21.795 3.25 20 3.25Z" fill="#9E9E9E"/>
</svg>
