<svg width="26" height="26" viewBox="0 0 26 26" fill="none" xmlns="http://www.w3.org/2000/svg">
<g clip-path="url(#clip0_732_1668)">
<path d="M26 13.0051C26 5.84006 20.1599 0 13.0051 0C5.85026 0 0 5.84006 0 13.0051C0 16.7762 1.62054 20.1701 4.19914 22.5449C4.19914 22.5449 4.19574 22.5551 4.18895 22.5755C4.32144 22.708 4.47432 22.8099 4.60682 22.922C4.68836 22.9831 4.74951 23.0545 4.83105 23.1054C5.06546 23.2991 5.32027 23.4826 5.57507 23.666C5.6668 23.7272 5.74833 23.7781 5.84006 23.8495C6.08467 24.0227 6.34967 24.1756 6.62485 24.3183C6.71658 24.3693 6.8185 24.4304 6.91023 24.4916C7.17523 24.6343 7.44022 24.7668 7.7256 24.8789C7.82752 24.9298 7.92944 24.9808 8.04155 25.0216C8.32693 25.1337 8.61231 25.2458 8.89769 25.3375C8.99961 25.3783 9.10153 25.4191 9.21364 25.4394C9.5296 25.5312 9.83536 25.6127 10.1513 25.684C10.243 25.7146 10.3348 25.735 10.4367 25.7452C10.8036 25.8267 11.1603 25.8777 11.5374 25.9185C11.5884 25.9185 11.6394 25.9287 11.6903 25.949C12.1286 25.9898 12.577 26.0102 13.0153 26.0102C13.4535 26.0102 13.902 25.9796 14.3301 25.949C14.381 25.949 14.432 25.9388 14.4829 25.9185C14.8601 25.8777 15.227 25.8267 15.5837 25.7452C15.6754 25.735 15.7672 25.6942 15.8691 25.684C16.185 25.6025 16.5112 25.5414 16.8067 25.4394C16.9087 25.3987 17.0106 25.3579 17.1227 25.3375C17.4081 25.2356 17.7036 25.1439 17.9788 25.0216C18.0808 24.9808 18.1827 24.9298 18.2948 24.8789C18.57 24.7668 18.8452 24.6343 19.1102 24.4916C19.2121 24.4406 19.3038 24.3795 19.3955 24.3183C19.6605 24.1654 19.9153 24.0227 20.1803 23.8495C20.2721 23.7985 20.3536 23.7374 20.4453 23.666C20.7103 23.4826 20.9549 23.2991 21.1893 23.1054C21.2709 23.0443 21.332 22.973 21.4136 22.922C21.5563 22.8099 21.6989 22.6876 21.8314 22.5755C21.8314 22.5755 21.828 22.5653 21.8212 22.5449C24.41 20.1701 26.0306 16.7762 26.0306 13.0051H26ZM19.4261 19.4669C15.8996 17.1023 10.1309 17.1023 6.58408 19.4669C6.01333 19.844 5.54449 20.2822 5.15719 20.7715C3.17993 18.7738 1.95688 16.022 1.95688 13.0051C1.94669 6.90004 6.90004 1.94669 13.0051 1.94669C19.1102 1.94669 24.0533 6.90004 24.0533 12.9949C24.0533 16.0118 22.8303 18.7534 20.853 20.7613C20.4759 20.2822 19.9969 19.8338 19.4261 19.4567V19.4669Z" fill="#9B69FF"/>
<path d="M13.0051 6.41113C10.3144 6.41113 8.13327 8.59224 8.13327 11.2829C8.13327 13.9737 10.2023 16.063 12.9439 16.1446H13.1784C15.8079 16.0528 17.8667 13.9227 17.8871 11.2829C17.8871 8.59224 15.706 6.41113 13.0153 6.41113H13.0051Z" fill="#9B69FF"/>
</g>
<defs>
<clipPath id="clip0_732_1668">
<rect width="26" height="26" fill="white"/>
</clipPath>
</defs>
</svg>
