<svg width="14" height="14" viewBox="0 0 14 14" fill="none" xmlns="http://www.w3.org/2000/svg">
<g clip-path="url(#clip0_51_14)">
<path fill-rule="evenodd" clip-rule="evenodd" d="M3.51402 4.35888C3.11028 4.35888 2.78505 4.03738 2.78505 3.63738C2.78505 3.23738 3.11402 2.91589 3.51402 2.91589C3.91402 2.91589 4.24299 3.23738 4.24299 3.63738C4.24299 4.03738 3.91402 4.35888 3.51402 4.35888ZM13.5738 7.45421L11.1551 5.06542C7.04299 1.00187 8.00374 1.97383 6.41121 0.291589C6.2729 0.157009 6.08972 0 5.89533 0H1.46168C0.654206 0 0 0.811215 0 1.60748V5.98878C0 6.17944 0.0785047 6.36262 0.213084 6.50093C3.07664 9.33084 1.01682 7.29346 7.3757 13.5776C7.94766 14.1421 8.87103 14.1421 9.43925 13.5776C12.6093 10.4449 11.9065 11.1402 13.5701 9.49533C14.1421 8.93084 14.1421 8.01869 13.5701 7.45421" fill="#D4D4D4"/>
</g>
<defs>
<clipPath id="clip0_51_14">
<rect width="14" height="14" fill="white"/>
</clipPath>
</defs>
</svg>
